<svg id="visual" viewBox="0 0 960 340" width="960" height="340" xmlns="http://www.w3.org/2000/svg" xmlns:xlink="http://www.w3.org/1999/xlink" version="1.1"><rect x="0" y="0" width="960" height="340" fill="#ffffff"></rect><path d="M0 176L22.8 176.3C45.7 176.7 91.3 177.3 137 181.2C182.7 185 228.3 192 274 190.8C319.7 189.7 365.3 180.3 411.2 175.8C457 171.3 503 171.7 548.8 181C594.7 190.3 640.3 208.7 686 214.7C731.7 220.7 777.3 214.3 823 211C868.7 207.7 914.3 207.3 937.2 207.2L960 207L960 341L937.2 341C914.3 341 868.7 341 823 341C777.3 341 731.7 341 686 341C640.3 341 594.7 341 548.8 341C503 341 457 341 411.2 341C365.3 341 319.7 341 274 341C228.3 341 182.7 341 137 341C91.3 341 45.7 341 22.8 341L0 341Z" fill="#f9ff00"></path><path d="M0 204L22.8 210.2C45.7 216.3 91.3 228.7 137 236.5C182.7 244.3 228.3 247.7 274 247.2C319.7 246.7 365.3 242.3 411.2 241.2C457 240 503 242 548.8 242.7C594.7 243.3 640.3 242.7 686 240.8C731.7 239 777.3 236 823 236.7C868.7 237.3 914.3 241.7 937.2 243.8L960 246L960 341L937.2 341C914.3 341 868.7 341 823 341C777.3 341 731.7 341 686 341C640.3 341 594.7 341 548.8 341C503 341 457 341 411.2 341C365.3 341 319.7 341 274 341C228.3 341 182.7 341 137 341C91.3 341 45.7 341 22.8 341L0 341Z" fill="#ffce00"></path><path d="M0 247L22.8 245.7C45.7 244.3 91.3 241.7 137 244C182.7 246.3 228.3 253.7 274 259.7C319.7 265.7 365.3 270.3 411.2 266.3C457 262.3 503 249.7 548.8 247.8C594.7 246 640.3 255 686 258.2C731.7 261.3 777.3 258.7 823 259.8C868.7 261 914.3 266 937.2 268.5L960 271L960 341L937.2 341C914.3 341 868.7 341 823 341C777.3 341 731.7 341 686 341C640.3 341 594.7 341 548.8 341C503 341 457 341 411.2 341C365.3 341 319.7 341 274 341C228.3 341 182.7 341 137 341C91.3 341 45.7 341 22.8 341L0 341Z" fill="#ff9e00"></path><path d="M0 265L22.8 270.2C45.7 275.3 91.3 285.7 137 287.7C182.7 289.7 228.3 283.3 274 280.3C319.7 277.3 365.3 277.7 411.2 280.7C457 283.7 503 289.3 548.8 292.7C594.7 296 640.3 297 686 297.5C731.7 298 777.3 298 823 296.2C868.7 294.3 914.3 290.7 937.2 288.8L960 287L960 341L937.2 341C914.3 341 868.7 341 823 341C777.3 341 731.7 341 686 341C640.3 341 594.7 341 548.8 341C503 341 457 341 411.2 341C365.3 341 319.7 341 274 341C228.3 341 182.7 341 137 341C91.3 341 45.7 341 22.8 341L0 341Z" fill="#fd6a00"></path><path d="M0 295L22.8 295.8C45.7 296.7 91.3 298.3 137 298.2C182.7 298 228.3 296 274 296.2C319.7 296.3 365.3 298.7 411.2 301.3C457 304 503 307 548.8 305.2C594.7 303.3 640.3 296.7 686 298.3C731.7 300 777.3 310 823 312.5C868.7 315 914.3 310 937.2 307.5L960 305L960 341L937.2 341C914.3 341 868.7 341 823 341C777.3 341 731.7 341 686 341C640.3 341 594.7 341 548.8 341C503 341 457 341 411.2 341C365.3 341 319.7 341 274 341C228.3 341 182.7 341 137 341C91.3 341 45.7 341 22.8 341L0 341Z" fill="#f70f0f"></path></svg>